<svg width="122" height="63" viewBox="0 0 122 63" fill="none" xmlns="http://www.w3.org/2000/svg">
<path d="M32.7969 58.2964C38.3977 40.0619 44.2396 21.8878 49.9534 3.69106C51.2198 -0.341773 55.0265 -0.0779434 58.396 0.0652787C59.1247 0.100456 59.7629 0.246192 60.3106 0.502484C60.7492 0.710656 61.0976 1.07097 61.2915 1.51703C61.4855 1.96308 61.5119 2.4648 61.366 2.92972C55.0089 23.0361 49.0212 41.8434 43.4029 59.3517C43.0561 60.4271 42.4129 61.289 41.4732 61.9372C39.8902 63.0378 34.5608 63.3242 32.9778 62.1634C31.8924 61.3643 32.4728 59.3592 32.7969 58.2964Z" fill="white"/>
<path d="M75.4394 38.5543C75.4044 38.5637 75.3721 38.5813 75.3453 38.6056C75.3185 38.63 75.298 38.6605 75.2854 38.6945C75.2729 38.7285 75.2686 38.765 75.2731 38.8009C75.2776 38.8369 75.2907 38.8712 75.3112 38.9011L87.749 57.618C87.8664 57.7934 87.9451 57.9918 87.9798 58.2C88.0145 58.4082 88.0044 58.6215 87.9502 58.8255C87.896 59.0295 87.7989 59.2196 87.6654 59.3831C87.5319 59.5467 87.3651 59.6799 87.1761 59.7738C86.6886 60.0201 86.1006 60.1457 85.4122 60.1507C80.9044 60.1884 76.5249 60.9498 73.6227 56.5853C70.0748 51.2634 66.4264 45.718 62.6775 39.9489C62.5067 39.6825 62.263 39.5443 61.9464 39.5343C60.5945 39.4991 59.1925 39.5016 57.7402 39.5418C55.9084 39.5946 55.0566 38.3734 55.5994 36.7377C56.3431 34.5115 57.0215 32.4033 57.6346 30.4133C57.808 29.8437 58.1639 29.347 58.6475 28.9996C59.1311 28.6522 59.7155 28.4736 60.3106 28.4911C62.8936 28.5615 65.552 28.5564 68.2858 28.476C72.7383 28.3454 75.0323 26.0463 75.168 21.5788C75.3942 14.2744 70.5698 14.1312 65.1952 14.0784C64.93 14.0747 64.6692 14.0088 64.4341 13.886C64.1989 13.7633 63.9958 13.587 63.8411 13.3715C63.6864 13.1559 63.5844 12.9071 63.5434 12.645C63.5023 12.3829 63.5233 12.1148 63.6047 11.8623L66.0169 4.34687C66.2883 3.49759 66.8712 3.07546 67.7657 3.08049C75.8691 3.08803 83.5955 5.78663 86.0152 14.2744C87.2213 18.5259 87.3042 22.923 86.264 27.4659C84.9373 33.2551 81.3291 36.9513 75.4394 38.5543Z" fill="#6B5CFF"/>
<path d="M9.79091 36.2251C14.4946 38.5166 19.2838 40.8559 24.1584 43.243C27.6409 44.9466 27.5128 48.4442 27.0906 51.6931C26.7665 54.2334 24.2337 53.6077 22.6884 52.8012C17.5777 50.1428 12.4795 47.5999 7.39383 45.1727C2.14738 42.6625 -1.06382 40.0092 0.323177 33.5491C0.81566 31.2726 2.26798 29.5213 4.68015 28.2951C10.4844 25.3503 16.5324 22.3074 22.8241 19.1666C24.5353 18.3072 26.8268 17.9228 27.1509 20.5988C27.5203 23.712 27.4977 27.1116 24.3694 28.6645C19.6858 30.9862 14.8288 33.3556 9.79845 35.7728C9.75597 35.7943 9.71998 35.827 9.69453 35.8673C9.66908 35.9075 9.65518 35.9538 9.6544 36.0008C9.65361 36.0478 9.66598 36.0937 9.6901 36.1333C9.71421 36.173 9.74913 36.2047 9.79091 36.2251Z" fill="white"/>
<path d="M111.646 36.3222C107.057 34.1054 102.233 31.7582 97.1722 29.2806C93.7568 27.6104 93.817 24.2476 94.1705 20.9524C94.3887 18.9513 96.3221 18.6203 97.8267 19.365C104.171 22.5147 110.39 25.6293 116.484 28.7088C118.931 29.9476 120.423 31.708 120.96 33.9901C122.366 40.0161 119.417 42.9727 114.242 45.4629C108.946 48.0107 103.69 50.6288 98.4737 53.317C96.3371 54.423 94.3887 54.3628 94.1028 51.4438C93.8019 48.3668 93.9975 45.2598 96.9691 43.7927C101.754 41.4355 106.646 39.0456 111.646 36.6232C111.675 36.61 111.7 36.5888 111.717 36.5621C111.734 36.5354 111.743 36.5044 111.743 36.4727C111.743 36.441 111.734 36.41 111.717 36.3833C111.7 36.3566 111.675 36.3354 111.646 36.3222Z" fill="white"/>
</svg>
