<svg width="25" height="25" viewBox="0 0 25 25" fill="none" xmlns="http://www.w3.org/2000/svg">
<path d="M9.42973 22.4476H15.4637C20.4919 22.4476 22.5033 20.4363 22.5033 15.408V9.37406C22.5033 4.34578 20.4919 2.33447 15.4637 2.33447H9.42973C4.40145 2.33447 2.39014 4.34578 2.39014 9.37406V15.408C2.39014 20.4363 4.40145 22.4476 9.42973 22.4476Z" stroke="white" stroke-width="1.50848" stroke-linecap="round" stroke-linejoin="round"/>
<path d="M15.9665 18.928C17.0727 18.928 17.9778 18.0229 17.9778 16.9167V7.8658C17.9778 6.75958 17.0727 5.85449 15.9665 5.85449C14.8603 5.85449 13.9552 6.75958 13.9552 7.8658V16.9167C13.9552 18.0229 14.8502 18.928 15.9665 18.928Z" stroke="white" stroke-width="1.50848" stroke-linecap="round" stroke-linejoin="round"/>
<path d="M8.92684 18.9279C10.0331 18.9279 10.9382 18.0228 10.9382 16.9166V13.3968C10.9382 12.2906 10.0331 11.3855 8.92684 11.3855C7.82062 11.3855 6.91553 12.2906 6.91553 13.3968V16.9166C6.91553 18.0228 7.81056 18.9279 8.92684 18.9279Z" stroke="white" stroke-width="1.50848" stroke-linecap="round" stroke-linejoin="round"/>
</svg>
