<svg width="84" height="85" viewBox="0 0 84 85" fill="none" xmlns="http://www.w3.org/2000/svg">
<path d="M56.2 56.4L42.3 42.5L28.4 56.4" stroke="white" stroke-opacity="1" stroke-width="3.475" stroke-linecap="round" stroke-linejoin="round"/>
<path d="M42.3 42.5V73.775" stroke="white" stroke-opacity="1" stroke-width="3.475" stroke-linecap="round" stroke-linejoin="round"/>
<path d="M71.4553 64.7051C74.8446 62.8574 77.5221 59.9335 79.0651 56.3951C80.6081 52.8566 80.9289 48.9051 79.9767 45.1641C79.0245 41.4231 76.8537 38.1058 73.8067 35.7356C70.7598 33.3654 67.0103 32.0774 63.15 32.0749H58.7715C57.7197 28.0065 55.7593 24.2295 53.0376 21.0278C50.3159 17.8261 46.9039 15.2831 43.0579 13.59C39.212 11.8968 35.0323 11.0975 30.833 11.2523C26.6336 11.407 22.5241 12.5117 18.8131 14.4832C15.1022 16.4548 11.8865 19.242 9.40786 22.6353C6.92918 26.0286 5.25199 29.9396 4.5024 34.0744C3.75281 38.2091 3.95031 42.46 5.08006 46.5074C6.20981 50.5549 8.24241 54.2935 11.025 57.4424" stroke="white" stroke-opacity="1" stroke-width="3.475" stroke-linecap="round" stroke-linejoin="round"/>
<path d="M56.2 56.4L42.3 42.5L28.4 56.4" stroke="white" stroke-opacity="1" stroke-width="3.475" stroke-linecap="round" stroke-linejoin="round"/>
</svg>
