<svg width="1440" height="422" viewBox="0 0 1440 422" fill="none" xmlns="http://www.w3.org/2000/svg">
<g clip-path="url(#clip0_210_511)">
<rect width="1440" height="422" fill="#6B5CFF"/>
<g filter="url(#filter0_d_210_511)">
<g clip-path="url(#clip1_210_511)">
<line x1="622.356" y1="406.71" x2="760.677" y2="290.644" stroke="#6F8EFF" stroke-width="22" stroke-linecap="round"/>
<line x1="55.5826" y1="480.534" x2="212.205" y2="349.112" stroke="#6F8EFF" stroke-width="19" stroke-linecap="round"/>
<line x1="1255.31" y1="292.29" x2="1500.33" y2="86.6919" stroke="#F4DC5A" stroke-width="5" stroke-linecap="round"/>
<line x1="996.478" y1="695.335" x2="1331.67" y2="414.079" stroke="#EC6C5A" stroke-width="6" stroke-linecap="round"/>
<line x1="959.157" y1="563.709" x2="1103.2" y2="442.843" stroke="#8D55E9" stroke-width="35" stroke-linecap="round"/>
<line x1="338.123" y1="220.745" x2="691.917" y2="-76.1232" stroke="#F4DC5A" stroke-width="2" stroke-linecap="round"/>
<line x1="1121.83" y1="668.246" x2="1488.92" y2="360.221" stroke="#8D55E9" stroke-width="2" stroke-linecap="round"/>
<line x1="1221.37" y1="405.403" x2="1451.11" y2="212.63" stroke="#4CC082" stroke-width="6" stroke-linecap="round"/>
<line x1="910.752" y1="530.483" x2="1268.03" y2="230.687" stroke="white" stroke-width="5" stroke-linecap="round"/>
<line x1="603.123" y1="627.149" x2="962.166" y2="325.877" stroke="#9E8F4D" stroke-width="2" stroke-linecap="round"/>
<line x1="-9.61662" y1="129.026" x2="83.1898" y2="51.1526" stroke="#F4DC5A" stroke-width="24" stroke-linecap="round"/>
<line x1="385.616" y1="92.241" x2="442.815" y2="44.2456" stroke="#8D55E9" stroke-width="32" stroke-linecap="round"/>
<line x1="67.6023" y1="265.283" x2="140.162" y2="204.398" stroke="#E350F0" stroke-width="26" stroke-linecap="round"/>
<line x1="1018.34" y1="330.632" x2="1117.95" y2="247.048" stroke="#EC6C5A" stroke-width="26" stroke-linecap="round"/>
<line x1="567.157" y1="138.564" x2="695.534" y2="30.843" stroke="#F4DC5A" stroke-width="35" stroke-linecap="round"/>
<line x1="323.081" y1="337.735" x2="376.492" y2="292.919" stroke="#6E8EFF" stroke-width="50" stroke-linecap="round"/>
<line x1="709.87" y1="242.072" x2="806.561" y2="160.939" stroke="#6E8EFF" stroke-width="32" stroke-linecap="round"/>
<line x1="1226.29" y1="196.97" x2="1385.11" y2="63.7058" stroke="#6E8EFF" stroke-width="21" stroke-linecap="round"/>
<line x1="299.247" y1="145.934" x2="461.54" y2="9.75348" stroke="#E350F0" stroke-width="4" stroke-linecap="round"/>
<line x1="987.04" y1="263.451" x2="1261.32" y2="33.3056" stroke="white" stroke-linecap="round"/>
<line x1="861.438" y1="274.162" x2="1135.21" y2="44.4435" stroke="#F4DC5A" stroke-width="13" stroke-linecap="round"/>
<line x1="513.493" y1="315.342" x2="767.14" y2="102.507" stroke="#FF5761" stroke-width="8" stroke-linecap="round"/>
</g>
</g>
</g>
<defs>
<filter id="filter0_d_210_511" x="-75" y="0" width="1561" height="494" filterUnits="userSpaceOnUse" color-interpolation-filters="sRGB">
<feFlood flood-opacity="0" result="BackgroundImageFix"/>
<feColorMatrix in="SourceAlpha" type="matrix" values="0 0 0 0 0 0 0 0 0 0 0 0 0 0 0 0 0 0 127 0" result="hardAlpha"/>
<feOffset dx="-50" dy="50"/>
<feGaussianBlur stdDeviation="12.5"/>
<feColorMatrix type="matrix" values="0 0 0 0 0 0 0 0 0 0 0 0 0 0 0 0 0 0 0.15 0"/>
<feBlend mode="normal" in2="BackgroundImageFix" result="effect1_dropShadow_210_511"/>
<feBlend mode="normal" in="SourceGraphic" in2="effect1_dropShadow_210_511" result="shape"/>
</filter>
<clipPath id="clip0_210_511">
<rect width="1440" height="422" fill="white"/>
</clipPath>
<clipPath id="clip1_210_511">
<rect width="1486" height="419" rx="20" fill="white"/>
</clipPath>
</defs>
</svg>
