<svg width="391" height="785" viewBox="0 0 391 785" fill="none" xmlns="http://www.w3.org/2000/svg">
<g clip-path="url(#clip0_210_648)">
<path d="M179.602 440.018C138.14 410.383 42.5914 412.319 0 416.991V205.742V0H397.178L390.039 740.999C390.911 743.584 390.878 745.195 390 745L390.039 740.999C387.172 732.506 374.534 713.5 350 713.5C314.504 713.5 323.284 638.252 245.285 631.244C167.287 624.235 231.43 477.062 179.602 440.018Z" fill="#6B5CFF"/>
<g filter="url(#filter0_d_210_648)">
<g clip-path="url(#clip1_210_648)">
<line x1="143.784" y1="433.406" x2="286.424" y2="313.717" stroke="#6F8EFF" stroke-width="22.6868" stroke-linecap="round"/>
<line x1="227.192" y1="663.532" x2="466.754" y2="462.516" stroke="#EC6C5A" stroke-width="12.3746" stroke-linecap="round"/>
<line x1="43.8688" y1="632.542" x2="126.556" y2="563.159" stroke="#E350F0" stroke-width="41.2487" stroke-linecap="round"/>
<line x1="236.897" y1="771.916" x2="327.376" y2="695.996" stroke="#FF5761" stroke-width="44.3424" stroke-linecap="round"/>
<line x1="-149.321" y1="241.636" x2="215.516" y2="-64.4996" stroke="#F4DC5A" stroke-width="2.06244" stroke-linecap="round"/>
<line x1="123.951" y1="660.727" x2="494.202" y2="350.05" stroke="#9E8F4D" stroke-width="2.06244" stroke-linecap="round"/>
<line x1="86.8621" y1="156.89" x2="219.247" y2="45.8059" stroke="#F4DC5A" stroke-width="36.0926" stroke-linecap="round"/>
<line x1="234.03" y1="263.629" x2="333.74" y2="179.963" stroke="#6E8EFF" stroke-width="32.999" stroke-linecap="round"/>
<line x1="390.33" y1="296.721" x2="672.644" y2="59.8309" stroke="#F4DC5A" stroke-width="13.4058" stroke-linecap="round"/>
<line x1="31.5231" y1="339.186" x2="293.088" y2="119.707" stroke="#FF5761" stroke-width="8.24974" stroke-linecap="round"/>
</g>
</g>
</g>
<defs>
<filter id="filter0_d_210_648" x="-575.341" y="14" width="1561.26" height="745.57" filterUnits="userSpaceOnUse" color-interpolation-filters="sRGB">
<feFlood flood-opacity="0" result="BackgroundImageFix"/>
<feColorMatrix in="SourceAlpha" type="matrix" values="0 0 0 0 0 0 0 0 0 0 0 0 0 0 0 0 0 0 127 0" result="hardAlpha"/>
<feOffset dx="-51.5609" dy="51.5609"/>
<feGaussianBlur stdDeviation="12.8902"/>
<feColorMatrix type="matrix" values="0 0 0 0 0 0 0 0 0 0 0 0 0 0 0 0 0 0 0.15 0"/>
<feBlend mode="normal" in2="BackgroundImageFix" result="effect1_dropShadow_210_648"/>
<feBlend mode="normal" in="SourceGraphic" in2="effect1_dropShadow_210_648" result="shape"/>
</filter>
<clipPath id="clip0_210_648">
<rect width="391" height="785" fill="white"/>
</clipPath>
<clipPath id="clip1_210_648">
<rect x="-498" y="14" width="1483.92" height="668.229" rx="20.6244" fill="white"/>
</clipPath>
</defs>
</svg>
