<svg width="46" height="46" viewBox="0 0 46 46" fill="none" xmlns="http://www.w3.org/2000/svg">
<path d="M21.3987 6.33487C22.1112 5.05425 22.4675 4.41675 23 4.41675C23.5325 4.41675 23.8888 5.05425 24.6012 6.33487L24.785 6.66487C24.9875 7.02862 25.0887 7.20862 25.2463 7.32862C25.4056 7.44862 25.6025 7.49362 25.9962 7.58175L26.3525 7.66425C27.7362 7.97737 28.4281 8.133 28.5931 8.66175C28.7581 9.19237 28.2856 9.74362 27.3425 10.8461L27.0988 11.1311C26.8306 11.4442 26.6956 11.5999 26.6356 11.7949C26.5756 11.9899 26.5963 12.198 26.6356 12.6161L26.6731 12.9967C26.8156 14.4686 26.8869 15.2055 26.4575 15.5317C26.0262 15.8599 25.3775 15.5599 24.0819 14.9636L23.7481 14.8099C23.3788 14.6411 23.195 14.5549 23 14.5549C22.805 14.5549 22.6212 14.6411 22.2519 14.8099L21.9181 14.9636C20.6225 15.5599 19.9738 15.8599 19.5425 15.5317C19.1113 15.2055 19.1844 14.4686 19.3269 12.9967L19.3644 12.6161C19.4037 12.198 19.4244 11.9899 19.3644 11.7949C19.3044 11.6017 19.1694 11.4442 18.9013 11.1311L18.6575 10.8461C17.7144 9.74362 17.2419 9.19237 17.4069 8.66175C17.5719 8.133 18.2637 7.97737 19.6475 7.66425L20.0038 7.58175C20.3975 7.49362 20.5944 7.4505 20.7537 7.32862C20.9113 7.20862 21.0125 7.02862 21.215 6.66487L21.3987 6.33487ZM24.875 19.4167H21.125C18.4737 19.4167 17.1481 19.4167 16.325 20.2417C15.5 21.063 15.5 22.3886 15.5 25.0417V41.9167H30.5V25.0417C30.5 22.3905 30.5 21.0649 29.675 20.2417C28.8538 19.4167 27.5281 19.4167 24.875 19.4167Z" fill="white"/>
<path opacity="0.5" d="M14.675 37.1167C13.8538 36.2917 12.5281 36.2917 9.875 36.2917C7.22375 36.2917 5.89813 36.2917 5.075 37.1167C4.25 37.938 4.25 39.2636 4.25 41.9167H15.5C15.5 39.2655 15.5 37.9399 14.675 37.1167ZM30.5 36.2917V41.9167H41.75V36.2917C41.75 33.6405 41.75 32.3149 40.925 31.4917C40.1037 30.6667 38.7781 30.6667 36.125 30.6667C33.4737 30.6667 32.1481 30.6667 31.325 31.4917C30.5 32.313 30.5 33.6386 30.5 36.2917Z" fill="white"/>
</svg>
