<svg width="46" height="46" viewBox="0 0 46 46" fill="none" xmlns="http://www.w3.org/2000/svg">
<path d="M13.0999 17.7562L6.60654 23.1667L13.0999 28.5773C13.3152 28.7537 13.4935 28.9711 13.6245 29.2168C13.7554 29.4626 13.8364 29.7318 13.8627 30.0089C13.8891 30.2861 13.8604 30.5658 13.7781 30.8318C13.6959 31.0978 13.5618 31.3449 13.3836 31.5588C13.2054 31.7727 12.9866 31.9493 12.7399 32.0782C12.4931 32.2072 12.2233 32.286 11.9459 32.3102C11.6685 32.3343 11.3891 32.3033 11.1237 32.219C10.8584 32.1346 10.6124 31.9986 10.3999 31.8187L1.96239 24.7874C1.72476 24.5895 1.53356 24.3417 1.40235 24.0616C1.27114 23.7815 1.20312 23.476 1.20312 23.1667C1.20312 22.8574 1.27114 22.5519 1.40235 22.2718C1.53356 21.9918 1.72476 21.744 1.96239 21.546L10.3999 14.5148C10.8303 14.162 11.3827 13.9936 11.9368 14.0464C12.4908 14.0991 13.0015 14.3686 13.3577 14.7962C13.7139 15.2238 13.8866 15.7749 13.8384 16.3293C13.7901 16.8837 13.5246 17.3966 13.0999 17.7562ZM44.0374 21.546L35.5999 14.5148C35.3874 14.3349 35.1414 14.1988 34.876 14.1144C34.6107 14.0301 34.3313 13.9991 34.0539 14.0233C33.7765 14.0474 33.5067 14.1262 33.2599 14.2552C33.0132 14.3842 32.7944 14.5607 32.6162 14.7746C32.438 14.9886 32.3039 15.2357 32.2217 15.5017C32.1394 15.7677 32.1107 16.0473 32.1371 16.3245C32.1634 16.6017 32.2444 16.8709 32.3753 17.1166C32.5063 17.3623 32.6845 17.5797 32.8999 17.7562L39.3933 23.1667L32.8999 28.5773C32.6845 28.7537 32.5063 28.9711 32.3753 29.2168C32.2444 29.4626 32.1634 29.7318 32.1371 30.0089C32.1107 30.2861 32.1394 30.5658 32.2217 30.8318C32.3039 31.0978 32.438 31.3449 32.6162 31.5588C32.7944 31.7727 33.0132 31.9493 33.2599 32.0782C33.5067 32.2072 33.7765 32.286 34.0539 32.3102C34.3313 32.3343 34.6107 32.3033 34.876 32.219C35.1414 32.1346 35.3874 31.9986 35.5999 31.8187L44.0374 24.7874C44.275 24.5895 44.4662 24.3417 44.5974 24.0616C44.7286 23.7815 44.7967 23.476 44.7967 23.1667C44.7967 22.8574 44.7286 22.5519 44.5974 22.2718C44.4662 21.9918 44.275 21.744 44.0374 21.546ZM29.3456 5.71515C29.0852 5.62046 28.8087 5.57799 28.5319 5.59018C28.2551 5.60236 27.9834 5.66895 27.7324 5.78616C27.4813 5.90336 27.2558 6.06888 27.0687 6.27325C26.8817 6.47762 26.7367 6.71685 26.6421 6.97726L15.3921 37.9148C15.2014 38.4404 15.2272 39.0203 15.4639 39.5269C15.7005 40.0335 16.1287 40.4254 16.6542 40.6165C16.8849 40.7017 17.129 40.7452 17.3749 40.7448C17.808 40.7449 18.2306 40.6117 18.5853 40.3632C18.9401 40.1148 19.2097 39.7632 19.3577 39.3562L30.6077 8.41867C30.7024 8.15828 30.7449 7.8818 30.7327 7.605C30.7205 7.3282 30.6539 7.05651 30.5367 6.80546C30.4195 6.5544 30.254 6.32889 30.0496 6.14182C29.8452 5.95474 29.606 5.80976 29.3456 5.71515Z" fill="white"/>
</svg>
