<?xml version="1.0" ?><svg viewBox="0 0 64 64" xmlns="http://www.w3.org/2000/svg"><defs><style>.cls-1{fill:#655e66;}.cls-2{fill:#756d78;}.cls-3{fill:#f7f8fa;}.cls-4{fill:#94d8e5;}.cls-5{fill:#e7ecf0;}</style></defs><g id="Orca"><path class="cls-1" d="M31.39,37.83c-1.4-4.62-2.17-5.61-1-6.32s8.49-1.59,9.64,4.3c.45,1.71.06,2.19.06,2.19Z" id="path57843-2"/><path class="cls-2" d="M49.65,49.28c3-.77,5.42-2.23,5.42-4.92,0-4.76-6.61-8.38-12.93-8.38a30.64,30.64,0,0,0-20,7.29c-2.67,2.19-5.77-.53-5.77-4V37.8A2.07,2.07,0,0,1,17.89,36a5,5,0,0,0,3.49-4.79v-1a1.7,1.7,0,0,0-1.71-1.71h-1.6a3.91,3.91,0,0,0-3.92,3.92,3.91,3.91,0,0,0-3.91-3.92H8.64a1.7,1.7,0,0,0-1.71,1.71v1A5,5,0,0,0,10.42,36,2.07,2.07,0,0,1,12,37.8v1.49A10.79,10.79,0,0,0,22.76,50.05h2.61Z" id="path12737-1"/><path class="cls-1" d="M18.07,28.44a3.87,3.87,0,0,0-.48,0A1.71,1.71,0,0,1,19,30.15v1A5,5,0,0,1,15.5,36a2.07,2.07,0,0,0-1.56,1.83v1.49c0,3.09,2.49,5.59,4.93,4.49a4.91,4.91,0,0,1-2.55-4.49V37.8A2.07,2.07,0,0,1,17.89,36a5,5,0,0,0,3.49-4.79v-1a1.7,1.7,0,0,0-1.71-1.71ZM49.65,49.28c3-.77,5.42-2.23,5.42-4.92,0-4.76-6.61-8.38-12.93-8.38-.43,0-.93,0-1.45,0,6,.33,12,3.82,12,8.34,0,2.69-2.44,4.15-5.42,4.92L44.44,50A19.17,19.17,0,0,0,49.65,49.28Z" id="path295113"/><path class="cls-3" d="M48.94,41.5c-.16,1.07-2.13,1.67-4.4,1.34s-4-1.47-3.83-2.54S42.83,38.63,45.1,39,49.09,40.43,48.94,41.5Z" id="path25318-6"/><path class="cls-3" d="M29.34,46.1a4,4,0,0,0-4,3.95H43.64a28,28,0,0,0,6-.76V47.81a1.7,1.7,0,0,0-1.71-1.71Z" id="rect25444-3"/><path class="cls-4" d="M51.31,27.64a2.9,2.9,0,1,1-2-3.6A2.89,2.89,0,0,1,51.31,27.64Z" id="path65656-2-3-36-3"/><path class="cls-4" d="M32.56,19.22a3.71,3.71,0,1,1-2.5-4.61A3.71,3.71,0,0,1,32.56,19.22Z" id="path65761-9-5-0-7"/><path class="cls-4" d="M43.21,16.44a2.9,2.9,0,1,1-2-3.6A2.88,2.88,0,0,1,43.21,16.44Z" id="path71055-1-6-6-4"/><path class="cls-5" d="M39.48,46.1h2.79A1.7,1.7,0,0,1,44,47.81v.44a5,5,0,0,1-5,5H37.6a1.7,1.7,0,0,1-1.7-1.71V49.69A3.58,3.58,0,0,1,39.48,46.1Z" id="rect24080-0"/><path d="M42.14,35c-.44,0-.88,0-1.32.06a6.38,6.38,0,0,0-3.64-4.29c-2.8-1.23-6.3-.71-7.31-.09-1.57.95-1.12,2.29-.31,4.73.18.53.39,1.18.62,1.9a33.1,33.1,0,0,0-8.73,5.21,2,2,0,0,1-2.21.36,3.94,3.94,0,0,1-1.92-3.57V37.8c0-.39.44-.74.87-.88a6,6,0,0,0,4.18-5.74v-1a2.72,2.72,0,0,0-2.71-2.71h-1.6a4.93,4.93,0,0,0-3.92,1.95,4.91,4.91,0,0,0-3.91-1.95H8.64a2.72,2.72,0,0,0-2.71,2.71v1a6,6,0,0,0,4.18,5.74c.43.14.87.49.87.89V39.3A11.85,11.85,0,0,0,22.76,51.06H34.9v.51a2.71,2.71,0,0,0,2.7,2.71h1.34A6,6,0,0,0,44.27,51c7.61-.31,11.8-2.66,11.8-6.65C56.07,38.83,48.73,35,42.14,35Zm-10.68-.22a11.91,11.91,0,0,1-.66-2.32.27.27,0,0,1,.1-.07,8.11,8.11,0,0,1,5.49.22,4.37,4.37,0,0,1,2.39,2.58,30.79,30.79,0,0,0-6.72,1.43C31.84,35.91,31.63,35.27,31.46,34.76ZM35,49.06h-8.4a3,3,0,0,1,2.78-2H35.7A4.57,4.57,0,0,0,35,49.06Zm4,3.22H37.6a.7.7,0,0,1-.7-.71V49.69a2.59,2.59,0,0,1,2.58-2.59h2.79a.7.7,0,0,1,.7.71v.44A4,4,0,0,1,38.94,52.28Zm5.93-5.18h3.07a.7.7,0,0,1,.71.71v.67a28,28,0,0,1-3.75.5A4.77,4.77,0,0,0,44.87,47.1Zm5.78.82v-.11a2.72,2.72,0,0,0-2.71-2.71H29.34a5,5,0,0,0-4.87,4H22.76A9.84,9.84,0,0,1,13,39.29v-1.5A3,3,0,0,0,10.73,35a4,4,0,0,1-2.8-3.84v-1a.7.7,0,0,1,.71-.71h1.6a2.91,2.91,0,0,1,2.91,2.92,1,1,0,0,0,2,0,2.92,2.92,0,0,1,2.92-2.92h1.6a.7.7,0,0,1,.71.71v1A4,4,0,0,1,17.58,35a3,3,0,0,0-2.25,2.78v1.49a5.91,5.91,0,0,0,3.07,5.38A4,4,0,0,0,22.72,44,29.9,29.9,0,0,1,42.14,37c5.63,0,11.93,3.16,11.93,7.38C54.07,46.14,52.56,47.24,50.65,47.92Z"/><path d="M45.25,38c-3-.43-5.29.49-5.53,2.19a2.58,2.58,0,0,0,1.44,2.52,8.13,8.13,0,0,0,3.24,1.15,10.65,10.65,0,0,0,1.37.1,7.38,7.38,0,0,0,2.06-.28c1.64-.5,2-1.48,2.1-2C50.17,39.94,48.21,38.4,45.25,38Zm-.56,3.88c-1.9-.28-3-1.12-3-1.39s.91-.59,2.2-.59A6.84,6.84,0,0,1,45,40c1.87.27,2.93,1.09,3,1.4C47.8,41.63,46.55,42.12,44.69,41.85Z"/><path d="M48.54,30.72a3.81,3.81,0,0,0,1.85-.48,3.87,3.87,0,0,0,1.88-2.31,3.9,3.9,0,0,0-5.59-4.54,3.91,3.91,0,0,0,1.86,7.33Zm-1.82-4.44a1.89,1.89,0,0,1,1.81-1.36,2,2,0,0,1,.54.08,1.89,1.89,0,1,1-2.35,1.28Z"/><path d="M29,22.88a4.71,4.71,0,0,0,4.14-7,4.71,4.71,0,0,0-8.66.9,4.72,4.72,0,0,0,3.17,5.86A4.51,4.51,0,0,0,29,22.88Zm-2.6-5.49A2.73,2.73,0,0,1,29,15.45a2.59,2.59,0,0,1,.78.12,2.71,2.71,0,1,1-3.37,1.82Z"/><path d="M39.33,19.35a3.89,3.89,0,0,0,1.11.17,3.93,3.93,0,0,0,3.73-2.79,3.89,3.89,0,1,0-7.16.74A3.85,3.85,0,0,0,39.33,19.35Zm-.71-4.27a1.9,1.9,0,0,1,1.82-1.36,2,2,0,0,1,.54.08,1.9,1.9,0,1,1-1.08,3.64,1.9,1.9,0,0,1-1.28-2.36Z"/></g></svg>