<?xml version="1.0" ?><svg viewBox="0 0 64 64" xmlns="http://www.w3.org/2000/svg"><defs><style>.cls-1{fill:#ebafa5;}.cls-2{fill:#f1ccc6;}</style></defs><g data-name="Manta Ray" id="Manta_Ray"><path class="cls-1" d="M21,39.4c-3,2.46-6,.92-7.62-.38a1.65,1.65,0,0,1,0-2.52A34.1,34.1,0,0,1,18.91,33l4.71-.91L25.42,35A6.73,6.73,0,0,1,21,39.4Z" id="path114601-4"/><path class="cls-1" d="M24.58,43c-2.46,3-.93,6,.37,7.62a1.66,1.66,0,0,0,2.53,0A34.12,34.12,0,0,0,31,45.08s1-4.6.65-4.76-3.77-3-3.77-3S24.46,41.21,24.58,43Z" id="path116102-3"/><path class="cls-2" d="M43.43,9a2.66,2.66,0,0,0-1.69.77L39.53,12C38,13.54,35.63,14.5,34,13c-4.7-4.27-11.78-4.49-16.27,0a2.51,2.51,0,0,0-.15,3.19,11.41,11.41,0,0,1,1.3,10.19c-.92,2.61-1.07,5.84.9,7.82l1.34,1.34a2.63,2.63,0,0,1,.14,3.58l-14,16.19a1,1,0,0,0,1.38,1.38l16.19-14a2.63,2.63,0,0,1,3.58.14l1.34,1.34c2,2,5.21,1.82,7.83.9a11.4,11.4,0,0,1,10.18,1.3A2.51,2.51,0,0,0,51,46.27c4.49-4.49,4.27-11.56,0-16.27-1.48-1.62-.52-4,1-5.53l2.22-2.21a2.67,2.67,0,0,0,.61-2.79.85.85,0,0,0-1.43-.15l-.95,1a2.07,2.07,0,0,1-2.93,0l-5.81-5.81a2.07,2.07,0,0,1,0-2.93l1-.95a.85.85,0,0,0-.15-1.43A2.58,2.58,0,0,0,43.43,9Z" id="rect109217-4"/><path class="cls-1" d="M54.21,19a1.07,1.07,0,0,0-.8.31l-.95,1a2.06,2.06,0,0,1-1.61.6l-.22.24L48.35,23.4c-1.6,1.61-2.59,4-1.07,5.72,4.41,4.84,4.64,12.14,0,16.78l-.14.11.65.41A2.51,2.51,0,0,0,51,46.27C55.47,41.78,55.25,34.7,51,30c-1.48-1.62-.52-4,1-5.53l2.21-2.21a2.65,2.65,0,0,0,.62-2.79A.68.68,0,0,0,54.21,19Z" id="path144825"/><path d="M6.58,57.42A2,2,0,0,0,8,58a1.87,1.87,0,0,0,1.33-.54l13-11.2a7.73,7.73,0,0,0,1.86,5,2.6,2.6,0,0,0,2,1h0a2.59,2.59,0,0,0,2-.92,31.24,31.24,0,0,0,3.2-4.94,9.93,9.93,0,0,0,6.5-.29,10.41,10.41,0,0,1,9.29,1.19A3.5,3.5,0,0,0,51.68,47c4.81-4.8,4.82-12.39,0-17.65-1-1.13-.21-2.95,1-4.16L54.93,23a3.68,3.68,0,0,0,.85-3.84,1.69,1.69,0,0,0-1.23-1.07,2,2,0,0,0-1.84.57l-1,1a1.08,1.08,0,0,1-1.51,0l-5.82-5.82a1.06,1.06,0,0,1-.31-.75,1.08,1.08,0,0,1,.31-.76l1-1A2,2,0,0,0,46,9.45a1.7,1.7,0,0,0-1.08-1.23A3.66,3.66,0,0,0,41,9.07l-2.21,2.21c-.87.87-2.86,2.19-4.16,1a12.78,12.78,0,0,0-17.65,0,3.5,3.5,0,0,0-.27,4.45,10.42,10.42,0,0,1,1.19,9.29,10,10,0,0,0-.3,6.46,32.59,32.59,0,0,0-5,3.21,2.67,2.67,0,0,0,.06,4.08,7.87,7.87,0,0,0,4.83,1.88h.17L6.58,54.62A2,2,0,0,0,6.58,57.42ZM26.71,50a.64.64,0,0,1-.49.21.59.59,0,0,1-.48-.22c-3.17-4-.27-6.38-.23-6.49a1.64,1.64,0,0,1,2.22.08l1.34,1.34a5.48,5.48,0,0,0,.6.5A30,30,0,0,1,26.71,50ZM14,38.24a.65.65,0,0,1-.23-.49.63.63,0,0,1,.21-.48,29.71,29.71,0,0,1,4.58-3,6.31,6.31,0,0,0,.53.63l1.34,1.34a1.64,1.64,0,0,1,.08,2.22C20.4,38.53,17.88,41.31,14,38.24Zm8,1.55a3.64,3.64,0,0,0-.18-4.94l-1.34-1.34c-1.61-1.61-1.44-4.59-.66-6.78A12.44,12.44,0,0,0,18.4,15.64a1.55,1.55,0,0,1,0-1.91,10.22,10.22,0,0,1,7.27-3,11.38,11.38,0,0,1,7.63,3c2.1,1.92,5.05.79,6.91-1.07l2.21-2.21a1.7,1.7,0,0,1,1-.48h.33l-.82.83a3.07,3.07,0,0,0,0,4.34L48.82,21a3.07,3.07,0,0,0,4.34,0l.83-.81a1.66,1.66,0,0,1-.47,1.37l-2.21,2.21c-1.86,1.86-3,4.81-1.07,6.92,4,4.45,4.06,10.85,0,14.89a1.56,1.56,0,0,1-1.92,0,12.44,12.44,0,0,0-11.08-1.43c-2.21.78-5.14,1-6.78-.66l-1.34-1.34A3.64,3.64,0,0,0,24.21,42L8,56Z"/><path d="M32.5,41.07a1,1,0,0,0,.92.61,1,1,0,0,0,.4-.09,20.65,20.65,0,0,0,6.29-4.34,19.7,19.7,0,0,0,5-7.95,1,1,0,1,0-1.91-.58,17.62,17.62,0,0,1-4.46,7.11A18.45,18.45,0,0,1,33,39.76,1,1,0,0,0,32.5,41.07Z"/><path d="M28.17,25.31a17.71,17.71,0,0,1,7.13-4.47,1,1,0,0,0-.58-1.91,19.79,19.79,0,0,0-8,5,20.53,20.53,0,0,0-4.34,6.29,1,1,0,0,0,.52,1.32,1.09,1.09,0,0,0,.39.08,1,1,0,0,0,.92-.61A18.53,18.53,0,0,1,28.17,25.31Z"/><path d="M27.4,15.28l3,1.74a1,1,0,0,0,1.37-.37,1,1,0,0,0-.37-1.36l-3-1.75a1,1,0,0,0-1,1.74Z"/><path d="M24.14,18.54l3,1.75a1,1,0,0,0,.49.13,1,1,0,0,0,.87-.5,1,1,0,0,0-.36-1.37l-3-1.74a1,1,0,0,0-1.37.37A1,1,0,0,0,24.14,18.54Z"/><path d="M47.35,32.21A1,1,0,0,0,47,33.58l1.74,3a1,1,0,0,0,1.37.36,1,1,0,0,0,.37-1.36l-1.75-3A1,1,0,0,0,47.35,32.21Z"/><path d="M44.08,35.48a1,1,0,0,0-.37,1.36l1.75,3a1,1,0,0,0,1.36.37,1,1,0,0,0,.37-1.37l-1.74-3A1,1,0,0,0,44.08,35.48Z"/><path d="M40.71,18.72a1,1,0,0,0,.71-.3l.69-.69a1,1,0,0,0,0-1.41,1,1,0,0,0-1.42,0L40,17a1,1,0,0,0,.71,1.71Z"/><path d="M46.28,24.29A1,1,0,0,0,47,24l.69-.69a1,1,0,0,0,0-1.42,1,1,0,0,0-1.41,0l-.69.69a1,1,0,0,0,.7,1.71Z"/></g></svg>