<svg width="184" height="183" viewBox="0 0 184 183" fill="none" xmlns="http://www.w3.org/2000/svg">
<path d="M73.9002 43.5126C75.3835 40.3423 77.7103 39.2879 81.138 39.0484C83.8473 38.8602 86.3087 38.9066 88.5223 39.1878C93.7192 39.8526 91.7749 44.492 90.7812 47.6623C81.3906 77.5285 72.0035 107.395 62.62 137.261C62.3722 138.052 61.7931 139.204 60.8829 140.717C59.9202 142.325 58.3333 143.319 56.122 143.698C53.9108 144.077 51.3933 144.165 48.5697 143.962C46.4037 143.805 43.866 143.251 43.9518 140.52C43.9876 139.351 44.1853 138.185 44.5451 137.025C53.8882 106.911 63.2347 76.7934 72.5849 46.6722C72.9209 45.5892 73.4105 44.5527 73.9002 43.5126Z" fill="#6B5CFF"/>
<path d="M115.204 103.345C114.863 103.431 114.789 103.621 114.982 103.917C121.557 113.903 128.072 123.818 134.53 133.662C135.116 134.555 135.552 135.497 135.838 136.489C136.467 138.655 134.194 139.305 132.61 139.38C130.008 139.504 126.727 139.524 122.767 139.441C117.023 139.32 114.028 136.36 111.154 131.939C105.302 122.937 99.5751 114.093 93.9731 105.407C93.8959 105.287 93.7906 105.188 93.6665 105.119C93.5424 105.05 93.4034 105.013 93.2618 105.011C91.072 104.977 88.688 104.981 86.1098 105.021C85.0661 105.038 84.2452 104.859 83.6472 104.485C81.8493 103.359 82.2353 101.365 82.7965 99.5456C83.5828 96.9817 84.3811 94.4273 85.1912 91.8825C85.974 89.4306 86.3564 87.765 88.5903 86.8607C88.9787 86.7035 89.9068 86.626 91.3746 86.6284C94.9393 86.6332 98.4694 86.6391 101.965 86.6463C107.441 86.6534 112.57 85.1236 114.225 79.3727C114.985 76.7302 115.085 73.8446 114.525 70.716C113.152 63.0243 106.397 62.2772 99.9384 62.4738C97.8797 62.5382 95.9603 62.1486 95.703 59.8503C95.6458 59.3547 95.6982 58.8519 95.8603 58.342C97.3424 53.6622 98.6327 49.5983 99.7311 46.1504C100.131 44.8875 100.893 44.2084 102.015 44.1131C103.118 44.0177 105.331 44.1321 108.652 44.4562C111.455 44.7326 114.271 45.3497 117.102 46.3076C127.385 49.7818 132.825 58.1919 133.965 68.7716C134.544 74.1508 134.451 80.0733 133.136 85.1558C130.622 94.8729 124.645 100.936 115.204 103.345Z" fill="white"/>
<path d="M26.1372 99.6141C28.8846 100.968 31.557 102.276 34.1542 103.539C36.8206 104.836 38.8686 106.473 39.394 109.511C39.6418 110.936 39.6895 112.492 39.537 114.179C39.1403 118.525 35.5446 119.959 31.8274 118.082C26.0491 115.166 20.4185 112.309 14.9356 109.511C10.5465 107.274 8.30904 103.857 8.51277 98.8528C8.68076 94.7139 10.7574 91.5685 14.4567 89.6635C20.3613 86.6278 26.1813 83.6707 31.9168 80.7923C35.7876 78.8479 39.2689 80.5743 39.5477 84.9634C39.8229 89.3025 39.3404 92.7337 35.0299 94.8997C32.0585 96.3914 29.0943 97.8568 26.1372 99.296C25.918 99.4009 25.918 99.5069 26.1372 99.6141Z" fill="#6B5CFF"/>
<path d="M157.34 99.5406C157.361 99.5309 157.378 99.5155 157.39 99.4963C157.402 99.4771 157.408 99.4548 157.407 99.4322C157.407 99.4097 157.4 99.3877 157.388 99.3688C157.375 99.35 157.358 99.3352 157.337 99.3262C155.199 98.2896 152.978 97.1935 150.671 96.0379C147.286 94.3401 145.231 93.4787 144.202 90.1976C143.619 88.3319 143.655 85.3867 144.084 83.4888C144.663 80.9297 147 79.5429 149.52 80.1362C150.566 80.3816 151.855 80.9046 153.387 81.7053C157.617 83.9118 161.881 86.0789 166.179 88.2068C168.984 89.5936 170.871 90.7659 171.841 91.7238C174.469 94.3163 175.41 97.7321 174.665 101.971C174.064 105.377 171.709 107.829 168.692 109.377C162.733 112.432 157.004 115.337 151.507 118.094C150.478 118.609 149.188 118.984 148.019 118.859C143.873 118.42 143.662 114.434 143.833 111C144.084 105.992 147.011 104.559 151.411 102.468C153.381 101.531 155.358 100.556 157.34 99.5406Z" fill="#6B5CFF"/>
</svg>
