<?xml version="1.0" ?><svg viewBox="0 0 64 64" xmlns="http://www.w3.org/2000/svg"><defs><style>.cls-1{fill:#dbe4eb;}.cls-2{fill:#e7ecf0;}.cls-3{fill:#756d78;}.cls-4{fill:#655e66;}.cls-5{fill:#544f56;}</style></defs><g id="Swordfish"><path class="cls-1" d="M38.78,36.34a13.28,13.28,0,0,1,3.87,7.93s6.54-3.52-.54-15.78l-3.92,1Z" id="path321084-4"/><path class="cls-1" d="M27.21,44.49a13.25,13.25,0,0,1,3.87,7.93s4.71-2.53,1.81-10.79L30,40.35Z" id="path321166-5"/><path class="cls-2" d="M17.74,41.54s-3-3.66-.29-10c2.16-5,4.94-10.14,6.42-12.8a1.72,1.72,0,0,1,2.66-.46,18.19,18.19,0,0,0,10.71,3.14l-6,12.46Z" id="path322888-0"/><path class="cls-3" d="M7.7,44.35l-.28.3c-.85,1-.34,1.37.94,1.33,2.27-.06,4.26,1.51,6.21,3.45s3.52,3.94,3.46,6.21c0,1.27.39,1.79,1.34.93l.28-.27a8.43,8.43,0,0,0,2.09-8.49,1.2,1.2,0,0,1,.73-1.55c4.74-1.58,10.9-4.16,14.5-7.76a20.59,20.59,0,0,0,5.14-10c.68-2.94,2.42-7.2,4.53-9.35l8-8.14a1.16,1.16,0,0,0,0-1.64,1.18,1.18,0,0,0-1.66,0l-8.14,8c-2.15,2.12-6.41,3.86-9.34,4.53A20.55,20.55,0,0,0,25.5,27c-3.6,3.6-6.18,9.76-7.76,14.5a1.18,1.18,0,0,1-1.54.72A8.46,8.46,0,0,0,7.7,44.35Z" id="path316311-7"/><path class="cls-4" d="M53.84,9a1.24,1.24,0,0,0-.84.33l-.81.8a1.13,1.13,0,0,1-.31,1l-8,8.14c-2.11,2.15-3.85,6.41-4.53,9.35a20.59,20.59,0,0,1-5.14,10c-3.6,3.6-9.76,6.18-14.5,7.76A1.2,1.2,0,0,0,19,48,8.44,8.44,0,0,1,18,55.08a3.46,3.46,0,0,1,0,.56c0,1.27.39,1.79,1.34.93l.28-.27a8.44,8.44,0,0,0,2.09-8.5,1.18,1.18,0,0,1,.73-1.53c4.74-1.59,10.9-4.17,14.5-7.76a20.66,20.66,0,0,0,5.14-10c.68-2.94,2.42-7.2,4.53-9.35l8-8.14a1.16,1.16,0,0,0,0-1.64A1.14,1.14,0,0,0,53.84,9Z" id="path213881"/><path class="cls-5" d="M35.25,26A1.61,1.61,0,1,1,33,26,1.6,1.6,0,0,1,35.25,26Z" id="path320708-8"/><path class="cls-5" d="M29.65,35.2a1.39,1.39,0,0,0-.9.37l-.07.08a1.06,1.06,0,0,0-.2.26A1.4,1.4,0,0,0,29,37.83l5.15,3a23,23,0,0,0,2.38-1.89l-6.12-3.53A1.39,1.39,0,0,0,29.65,35.2Zm-5.27,4.23a1.46,1.46,0,0,0-.9.38,1.23,1.23,0,0,0-.26.33,1.41,1.41,0,0,0,.51,1.93l3.88,2.24c1.05-.45,2.09-.94,3.1-1.47l-5.56-3.22A1.42,1.42,0,0,0,24.38,39.43Z" id="rect324582-3"/><path d="M8.39,47c1.95,0,3.79,1.49,5.47,3.16s3.23,3.51,3.17,5.47c-.06,2.5,1.61,3,3,1.7l.32-.3a9.43,9.43,0,0,0,2.34-9.5c0-.09-.06-.25.09-.3,1.28-.42,2.68-.94,4.13-1.53a12.51,12.51,0,0,1,3.16,6.79,1,1,0,0,0,1.48.83c.21-.11,5.1-2.89,2.51-11.25a17.45,17.45,0,0,0,4.73-4.16,12.4,12.4,0,0,1,2.85,6.43,1,1,0,0,0,1.47.83,6.7,6.7,0,0,0,2.93-4.07c1-3.37,0-7.65-2.87-12.72.72-2.9,2.34-6.65,4.18-8.51l8-8.15A2.17,2.17,0,0,0,52.3,8.63l-8.14,8a19.37,19.37,0,0,1-7.08,3.76,17.09,17.09,0,0,1-10-2.94,2.94,2.94,0,0,0-2.37-.55A2.66,2.66,0,0,0,23,18.25c-1.48,2.64-4.28,7.81-6.46,12.89s-1,8.59-.14,10.15A9.4,9.4,0,0,0,7,43.64H7L6.68,44A1.81,1.81,0,0,0,6.13,46C6.6,47,8,47,8.39,47Zm19.3-3.79-3.46-2a.42.42,0,0,1-.15-.56l.08-.1a.41.41,0,0,1,.49,0l3.94,2.28C28.29,42.91,28,43.06,27.69,43.19Zm4,7.24a14.83,14.83,0,0,0-2.88-5.58c1.3-.59,2.83-1.39,3.44-1.73C33.38,47,32.58,49.25,31.74,50.43ZM29.91,36.25l4.9,2.83c-.23.18-.49.35-.73.53L29.5,37A.41.41,0,0,1,29.91,36.25Zm14.24,4.21a5.84,5.84,0,0,1-.84,1.82A15,15,0,0,0,40,36.21a20.77,20.77,0,0,0,2.38-5.08C44.63,35.74,44.62,38.72,44.15,40.46ZM18.37,31.93c2.15-5,4.92-10.1,6.38-12.7a.66.66,0,0,1,.42-.36,1,1,0,0,1,.78.23,17.92,17.92,0,0,0,6.19,2.74,20.6,20.6,0,0,0-4.43,2.21,6.86,6.86,0,0,1-2.4-.75A1,1,0,1,0,24.23,25a7.2,7.2,0,0,0,1.4.63c-.28.24-.58.46-.84.71-.4.4-.78.85-1.16,1.31l-1.19-.39a1,1,0,0,0-.62,1.91l.54.17c-.47.68-.92,1.39-1.34,2.12l-.57-.19a1,1,0,0,0-.63,1.9l.25.08a55.76,55.76,0,0,0-2.46,5.68A10.45,10.45,0,0,1,18.37,31.93ZM15.9,43.22a2.24,2.24,0,0,0,2.79-1.37c1.5-4.51,4-10.62,7.52-14.11a19.29,19.29,0,0,1,9.53-4.87c3.08-.71,7.53-2.54,9.82-4.8l8.14-8a.17.17,0,0,1,.25,0,.16.16,0,0,1,0,.24l-8,8.14c-3.91,4-4.57,10.45-6.32,14.32a7.17,7.17,0,0,1-7.42-1.7,1,1,0,0,0-1.41,1.41,9.13,9.13,0,0,0,6.49,2.7,8,8,0,0,0,1.1-.11,15,15,0,0,1-2,2.61l-5.46-3.15a2.4,2.4,0,0,0-2.84.32L28,35a2.18,2.18,0,0,0-.33.45,2.4,2.4,0,0,0,.88,3.29l3.72,2.15c-.49.29-1,.57-1.49.84l-5.08-2.93a2.38,2.38,0,0,0-2.84.31,2.35,2.35,0,0,0-.46.57,2.41,2.41,0,0,0,.88,3.29l2.12,1.23c-1.11.43-2.2.82-3.2,1.16a2.17,2.17,0,0,0-1.36,2.78A7.46,7.46,0,0,1,19,55.5c0-2.64-1.81-4.82-3.76-6.77S11.14,45,8.5,45h0A7.43,7.43,0,0,1,15.9,43.22Z"/><path d="M34.12,29.69A2.61,2.61,0,0,0,36,25.24a2.61,2.61,0,1,0-1.84,4.45Zm-.43-3a.58.58,0,0,1,.43-.18.61.61,0,0,1,.43.18.62.62,0,0,1,0,.86.61.61,0,0,1-.86,0A.6.6,0,0,1,33.69,26.66Z"/></g></svg>