<svg width="1440" height="1024" viewBox="0 0 1440 1024" fill="none" xmlns="http://www.w3.org/2000/svg">
<g filter="url(#filter0_d_348_403)">
<g clip-path="url(#clip0_348_403)">
<line x1="328.095" y1="539.257" x2="457.224" y2="430.905" stroke="#4CC082" stroke-width="34" stroke-linecap="round"/>
<line x1="642.233" y1="1002.07" x2="939.341" y2="752.767" stroke="#4CC082" stroke-width="20" stroke-linecap="round"/>
<line x1="599.356" y1="380.71" x2="737.677" y2="264.644" stroke="#6F8EFF" stroke-width="22" stroke-linecap="round"/>
<line x1="121.849" y1="559.069" x2="183.722" y2="507.151" stroke="#6F8EFF" stroke-width="30" stroke-linecap="round"/>
<line x1="32.5826" y1="454.534" x2="189.205" y2="323.112" stroke="#6F8EFF" stroke-width="19" stroke-linecap="round"/>
<line x1="1313.27" y1="1009.32" x2="1393.48" y2="942.015" stroke="#8D55E9" stroke-width="10" stroke-linecap="round"/>
<line x1="680.239" y1="603.869" x2="912.549" y2="408.938" stroke="#EC6C5A" stroke-width="12" stroke-linecap="round"/>
<line x1="-35.2605" y1="780.331" x2="248.461" y2="542.26" stroke="#EC6C5A" stroke-width="12" stroke-linecap="round"/>
<line x1="330.74" y1="1023.18" x2="489.142" y2="890.26" stroke="#8D55E9" stroke-width="12" stroke-linecap="round"/>
<line x1="-7.39766" y1="968.422" x2="124.916" y2="857.398" stroke="#4CC082" stroke-width="26" stroke-linecap="round"/>
<line x1="836.644" y1="977.137" x2="1176.68" y2="691.812" stroke="#FF5761" stroke-width="2" stroke-linecap="round"/>
<line x1="-68.0883" y1="607.791" x2="175.445" y2="403.442" stroke="white" stroke-linecap="round"/>
<line x1="1232.31" y1="266.29" x2="1477.33" y2="60.6919" stroke="#F4DC5A" stroke-width="5" stroke-linecap="round"/>
<line x1="502.465" y1="573.817" x2="582.649" y2="506.535" stroke="#E350F0" stroke-width="40" stroke-linecap="round"/>
<line x1="388.748" y1="871.93" x2="549.539" y2="737.01" stroke="#E350F0" stroke-width="26" stroke-linecap="round"/>
<line x1="973.478" y1="669.335" x2="1308.67" y2="388.079" stroke="#EC6C5A" stroke-width="6" stroke-linecap="round"/>
<path d="M1276.14 927.198L1359.97 856.857" stroke="#F4DC5A" stroke-width="51" stroke-linecap="round"/>
<line x1="1258.39" y1="632.272" x2="1324.72" y2="576.61" stroke="#EC6C5A" stroke-width="55" stroke-linecap="round"/>
<line x1="292.39" y1="833.374" x2="326.669" y2="804.61" stroke="#4CC082" stroke-width="55" stroke-linecap="round"/>
<line x1="689.65" y1="708.972" x2="777.39" y2="635.35" stroke="#FF5761" stroke-width="43" stroke-linecap="round"/>
<line x1="981.219" y1="958.173" x2="1065.11" y2="887.781" stroke="#8D55E9" stroke-width="36" stroke-linecap="round"/>
<line x1="936.157" y1="537.709" x2="1080.2" y2="416.843" stroke="#8D55E9" stroke-width="35" stroke-linecap="round"/>
<line x1="315.123" y1="194.745" x2="668.917" y2="-102.123" stroke="#F4DC5A" stroke-width="2" stroke-linecap="round"/>
<line x1="1098.83" y1="642.247" x2="1465.92" y2="334.221" stroke="#8D55E9" stroke-width="2" stroke-linecap="round"/>
<line x1="43.2465" y1="865.738" x2="437.699" y2="534.753" stroke="white" stroke-width="4" stroke-linecap="round"/>
<line x1="1198.37" y1="379.403" x2="1428.11" y2="186.63" stroke="#4CC082" stroke-width="6" stroke-linecap="round"/>
<line x1="1066.12" y1="1006" x2="1281.97" y2="824.877" stroke="white" stroke-width="2" stroke-linecap="round"/>
<line x1="887.752" y1="504.483" x2="1245.03" y2="204.687" stroke="white" stroke-width="5" stroke-linecap="round"/>
<line x1="617.362" y1="895.199" x2="814.71" y2="729.604" stroke="white" stroke-width="3" stroke-linecap="round"/>
<line x1="580.123" y1="601.149" x2="939.166" y2="299.877" stroke="#9E8F4D" stroke-width="2" stroke-linecap="round"/>
<line x1="1183.61" y1="801.135" x2="1437.25" y2="588.3" stroke="#FF5761" stroke-width="8" stroke-linecap="round"/>
<line x1="1126.49" y1="910.243" x2="1333.54" y2="736.507" stroke="#4CC082" stroke-width="8" stroke-linecap="round"/>
<line x1="-32.6166" y1="103.026" x2="60.1898" y2="25.1526" stroke="#F4DC5A" stroke-width="24" stroke-linecap="round"/>
<line x1="362.616" y1="66.241" x2="419.815" y2="18.2456" stroke="#8D55E9" stroke-width="32" stroke-linecap="round"/>
<line x1="44.6023" y1="239.283" x2="117.162" y2="178.398" stroke="#E350F0" stroke-width="26" stroke-linecap="round"/>
<line x1="995.339" y1="304.632" x2="1094.95" y2="221.048" stroke="#EC6C5A" stroke-width="26" stroke-linecap="round"/>
<line x1="544.157" y1="112.564" x2="672.534" y2="4.84298" stroke="#F4DC5A" stroke-width="35" stroke-linecap="round"/>
<line x1="300.081" y1="311.735" x2="353.492" y2="266.919" stroke="#6E8EFF" stroke-width="50" stroke-linecap="round"/>
<line x1="686.87" y1="216.072" x2="783.561" y2="134.939" stroke="#6E8EFF" stroke-width="32" stroke-linecap="round"/>
<line x1="1203.29" y1="170.97" x2="1362.11" y2="37.7058" stroke="#6E8EFF" stroke-width="21" stroke-linecap="round"/>
<line x1="276.247" y1="119.934" x2="438.54" y2="-16.2465" stroke="#E350F0" stroke-width="4" stroke-linecap="round"/>
<line x1="964.04" y1="237.451" x2="1238.32" y2="7.3056" stroke="white" stroke-linecap="round"/>
<line x1="838.438" y1="248.162" x2="1112.21" y2="18.4435" stroke="#F4DC5A" stroke-width="13" stroke-linecap="round"/>
<line x1="490.493" y1="289.342" x2="744.14" y2="76.507" stroke="#FF5761" stroke-width="8" stroke-linecap="round"/>
</g>
</g>
<defs>
<filter id="filter0_d_348_403" x="-98" y="-26" width="1579" height="1159" filterUnits="userSpaceOnUse" color-interpolation-filters="sRGB">
<feFlood flood-opacity="0" result="BackgroundImageFix"/>
<feColorMatrix in="SourceAlpha" type="matrix" values="0 0 0 0 0 0 0 0 0 0 0 0 0 0 0 0 0 0 127 0" result="hardAlpha"/>
<feOffset dx="-50" dy="50"/>
<feGaussianBlur stdDeviation="12.5"/>
<feColorMatrix type="matrix" values="0 0 0 0 0 0 0 0 0 0 0 0 0 0 0 0 0 0 0.15 0"/>
<feBlend mode="normal" in2="BackgroundImageFix" result="effect1_dropShadow_348_403"/>
<feBlend mode="normal" in="SourceGraphic" in2="effect1_dropShadow_348_403" result="shape"/>
</filter>
<clipPath id="clip0_348_403">
<rect x="-23" y="-26" width="1504" height="1084" rx="20" fill="white"/>
</clipPath>
</defs>
</svg>
