<svg width="183" height="183" viewBox="0 0 183 183" fill="none" xmlns="http://www.w3.org/2000/svg">
<path d="M73.4002 43.5125C74.8835 40.3422 77.2103 39.2878 80.638 39.0483C83.3473 38.86 85.8087 38.9065 88.0223 39.1877C93.2192 39.8525 91.2749 44.4918 90.2812 47.6622C80.8906 77.5283 71.5035 107.395 62.12 137.261C61.8722 138.052 61.2931 139.204 60.3829 140.717C59.4202 142.325 57.8333 143.319 55.622 143.698C53.4108 144.077 50.8933 144.165 48.0697 143.962C45.9037 143.805 43.366 143.251 43.4518 140.52C43.4876 139.35 43.6853 138.185 44.0451 137.025C53.3882 106.911 62.7347 76.7932 72.0849 46.6721C72.4209 45.5891 72.9105 44.5526 73.4002 43.5125Z" fill="white"/>
<path d="M114.704 103.345C114.363 103.431 114.289 103.621 114.482 103.917C121.056 113.903 127.572 123.818 134.03 133.662C134.616 134.555 135.052 135.497 135.338 136.489C135.967 138.655 133.694 139.305 132.11 139.38C129.508 139.504 126.227 139.524 122.267 139.441C116.523 139.32 113.528 136.36 110.654 131.939C104.802 122.937 99.0749 114.093 93.4729 105.407C93.3958 105.287 93.2905 105.188 93.1664 105.119C93.0423 105.05 92.9033 105.013 92.7617 105.011C90.5719 104.977 88.1879 104.981 85.6097 105.021C84.566 105.038 83.7451 104.859 83.147 104.485C81.3492 103.359 81.7352 101.365 82.2964 99.5456C83.0827 96.9817 83.8809 94.4273 84.6911 91.8825C85.4738 89.4306 85.8563 87.765 88.0902 86.8607C88.4786 86.7035 89.4067 86.626 90.8745 86.6284C94.4392 86.6332 97.9693 86.6391 101.465 86.6463C106.941 86.6534 112.07 85.1236 113.724 79.3727C114.485 76.7302 114.585 73.8446 114.025 70.716C112.652 63.0243 105.897 62.2772 99.4383 62.4738C97.3796 62.5382 95.4602 62.1486 95.2029 59.8503C95.1457 59.3547 95.1981 58.8519 95.3601 58.342C96.8422 53.6622 98.1325 49.5983 99.231 46.1504C99.6313 44.8875 100.393 44.2084 101.515 44.1131C102.618 44.0177 104.831 44.1321 108.152 44.4562C110.954 44.7326 113.771 45.3497 116.602 46.3076C126.885 49.7818 132.325 58.1919 133.465 68.7716C134.044 74.1508 133.951 80.0733 132.636 85.1558C130.122 94.8729 124.145 100.936 114.704 103.345Z" fill="white"/>
<path d="M25.6372 99.6141C28.3846 100.968 31.057 102.276 33.6542 103.539C36.3206 104.836 38.3686 106.473 38.894 109.511C39.1418 110.936 39.1895 112.492 39.037 114.179C38.6403 118.525 35.0446 119.959 31.3274 118.082C25.5491 115.166 19.9185 112.309 14.4356 109.511C10.0465 107.274 7.80904 103.857 8.01277 98.8528C8.18076 94.7139 10.2574 91.5685 13.9567 89.6635C19.8613 86.6278 25.6813 83.6707 31.4168 80.7923C35.2876 78.8479 38.7689 80.5743 39.0477 84.9634C39.3229 89.3025 38.8404 92.7337 34.5299 94.8997C31.5585 96.3914 28.5943 97.8568 25.6372 99.296C25.418 99.4009 25.418 99.5069 25.6372 99.6141Z" fill="white"/>
<path d="M156.84 99.5406C156.861 99.5309 156.878 99.5155 156.89 99.4963C156.902 99.4771 156.908 99.4548 156.907 99.4322C156.907 99.4097 156.9 99.3877 156.888 99.3688C156.875 99.35 156.857 99.3352 156.837 99.3262C154.699 98.2896 152.477 97.1935 150.171 96.0379C146.786 94.3401 144.731 93.4787 143.701 90.1976C143.119 88.3319 143.155 85.3867 143.584 83.4888C144.163 80.9297 146.5 79.5429 149.02 80.1362C150.066 80.3816 151.355 80.9046 152.887 81.7053C157.117 83.9118 161.381 86.0789 165.679 88.2068C168.484 89.5936 170.371 90.7659 171.341 91.7238C173.969 94.3163 174.91 97.7321 174.165 101.971C173.564 105.377 171.209 107.829 168.192 109.377C162.233 112.432 156.504 115.337 151.007 118.094C149.978 118.609 148.688 118.984 147.519 118.859C143.373 118.42 143.162 114.434 143.333 111C143.584 105.992 146.511 104.559 150.911 102.468C152.881 101.531 154.858 100.556 156.84 99.5406Z" fill="white"/>
</svg>
